<?xml version="1.0" encoding="UTF-8" standalone="no"?>
<svg xmlns:rdf="http://www.w3.org/1999/02/22-rdf-syntax-ns#" xmlns="http://www.w3.org/2000/svg" height="280.88mm" width="281.76mm" version="1.1" xmlns:cc="http://creativecommons.org/ns#" xmlns:dc="http://purl.org/dc/elements/1.1/" viewBox="0 0 500 500">
<path d="M 257.808 19.091 C 125.353 19.091 17.977 126.467 17.977 258.922 C 17.977 391.377 125.353 498.753 257.808 498.753 C 356.755 498.753 444.597 439.631 482.709 354.501 L 408.713 354.501 C 377.887 404.507 322.616 437.84 259.56 437.84 C 162.861 437.84 84.471 359.45 84.471 262.751 C 84.471 166.052 162.861 87.662 259.56 87.662 C 322.712 87.662 378.056 121.096 408.854 171.23 L 485.058 171.23 C 448.305 82.404 358.846 19.091 257.808 19.091 Z" style="stroke: rgb(0, 0, 0);"></path>
<ellipse style="stroke: rgb(0, 0, 0);" cx="258.288" cy="259.917" rx="83.309" ry="83.309"></ellipse>
<path style="stroke: rgb(0, 0, 0);" d="M 335.021 291.693 C 374.019 291.693 413.109 292.798 451.986 292.798 C 453.23 292.711 495.329 234.47 496.454 232.037 C 496.612 231.822 454.864 231.694 442.745 231.694 C 407.035 231.694 372.029 231.872 336.339 231.872"></path>
</svg>
